HIERARCHY
ROOT Hips
{
	OFFSET 173.408295 91.952423 -518.280273
	CHANNELS 6 Xposition Yposition Zposition Zrotation Yrotation Xrotation 
	JOINT LeftUpLeg
	{
		OFFSET 0.103459 1.857827 10.548504
		CHANNELS 3 Zrotation Yrotation Xrotation
		JOINT LeftLeg
		{
			OFFSET 43.500008 0.000000 0.000004
			CHANNELS 3 Zrotation Yrotation Xrotation
			JOINT LeftFoot
			{
				OFFSET 42.372192 0.000011 0.000000
				CHANNELS 3 Zrotation Yrotation Xrotation
				JOINT LeftToe
				{
					OFFSET 17.299973 -0.000013 -0.000010
					CHANNELS 3 Zrotation Yrotation Xrotation
					End Site
					{
						OFFSET 0.000000 0.000000 0.000000
					}
				}
			}
		}
	}
	JOINT RightUpLeg
	{
		OFFSET 0.103454 1.857830 -10.548500
		CHANNELS 3 Zrotation Yrotation Xrotation
		JOINT RightLeg
		{
			OFFSET 43.500038 -0.000038 0.000004
			CHANNELS 3 Zrotation Yrotation Xrotation
			JOINT RightFoot
			{
				OFFSET 42.372253 0.000019 0.000024
				CHANNELS 3 Zrotation Yrotation Xrotation
				JOINT RightToe
				{
					OFFSET 17.299988 -0.000007 0.000004
					CHANNELS 3 Zrotation Yrotation Xrotation
					End Site
					{
						OFFSET 0.000000 0.000000 0.000000
					}
				}
			}
		}
	}
	JOINT Spine
	{
		OFFSET 6.901963 -2.603744 0.000004
		CHANNELS 3 Zrotation Yrotation Xrotation
		JOINT Spine1
		{
			OFFSET 12.588104 0.000008 -0.000010
			CHANNELS 3 Zrotation Yrotation Xrotation
			JOINT Spine2
			{
				OFFSET 12.343202 -0.000005 0.000010
				CHANNELS 3 Zrotation Yrotation Xrotation
				JOINT Neck
				{
					OFFSET 25.832897 0.000000 0.000001
					CHANNELS 3 Zrotation Yrotation Xrotation
					JOINT Head
					{
						OFFSET 11.766611 -0.000006 -0.000000
						CHANNELS 3 Zrotation Yrotation Xrotation
						End Site
						{
							OFFSET 0.000000 0.000000 0.000000
						}
					}
				}
				JOINT LeftShoulder
				{
					OFFSET 19.745899 -1.480366 6.000108
					CHANNELS 3 Zrotation Yrotation Xrotation
					JOINT LeftArm
					{
						OFFSET 11.284111 -0.000018 -0.000015
						CHANNELS 3 Zrotation Yrotation Xrotation
						JOINT LeftForeArm
						{
							OFFSET 33.000050 -0.000005 0.000028
							CHANNELS 3 Zrotation Yrotation Xrotation
							JOINT LeftHand
							{
								OFFSET 25.200012 0.000000 0.000002
								CHANNELS 3 Zrotation Yrotation Xrotation
								End Site
								{
									OFFSET 0.000000 0.000000 0.000000
								}
							}
						}
					}
				}
				JOINT RightShoulder
				{
					OFFSET 19.746111 -1.480335 -6.000074
					CHANNELS 3 Zrotation Yrotation Xrotation
					JOINT RightArm
					{
						OFFSET 11.284151 0.000036 0.000001
						CHANNELS 3 Zrotation Yrotation Xrotation
						JOINT RightForeArm
						{
							OFFSET 33.000092 -0.000035 0.000022
							CHANNELS 3 Zrotation Yrotation Xrotation
							JOINT RightHand
							{
								OFFSET 25.199768 0.000178 0.000417
								CHANNELS 3 Zrotation Yrotation Xrotation
								End Site
								{
									OFFSET 0.000000 0.000000 0.000000
								}
							}
						}
					}
				}
			}
		}
	}
}
MOTION
Frames: 14
Frame Time: 0.033333
-270.665405 92.159698 562.506226 89.078043 -1.125682 170.440800 162.249559 2.918593 168.706478 -16.585765 1.206905 -0.903025 67.638933 1.683673 2.816573 21.454557 0.003092 -0.000000 -172.155314 4.403898 -165.077298 -23.826347 3.318864 9.939181 69.871469 -1.925380 16.100091 21.454557 -0.003104 -0.000016 5.774088 0.016439 1.711743 1.535536 0.011134 3.423546 1.218064 0.031933 3.423418 -5.357968 10.363472 3.118712 18.355177 -27.806651 6.412663 174.255652 -76.797404 4.353396 -7.537090 63.271785 35.399600 -31.863871 -8.360280 0.834772 -0.150274 -7.832723 14.393237 -165.510892 73.330974 16.274891 -17.866441 -57.278824 -26.313703 -34.939686 13.855224 -1.286704 1.992668 6.341832 -10.181825 
-268.586914 92.057220 562.275024 89.577767 -1.443346 171.319709 163.411484 3.621003 168.693528 -17.760777 0.909196 -0.470335 69.207841 1.625788 3.660467 21.454553 0.003092 -0.000000 -172.734022 5.786195 -164.421846 -28.000417 2.963464 9.448272 66.966344 -0.919619 16.715933 21.454550 -0.003106 -0.000017 5.801383 -0.131297 1.555718 1.586088 -0.283030 3.109578 1.268504 -0.264119 3.111229 -5.250088 10.664078 3.066525 17.834529 -27.731126 6.545865 174.552847 -76.654632 4.053990 -9.115961 62.266368 35.091548 -32.337565 -8.524404 0.855218 -0.775267 -7.484282 17.404555 -165.042697 73.102244 16.756869 -16.055468 -57.822572 -27.770057 -36.817011 14.364042 -1.363847 1.014777 5.236837 -10.671054 
-266.620209 91.769913 561.998230 90.268832 -2.089944 172.117680 164.472772 4.595594 168.967665 -19.322965 0.507688 -0.305605 70.958808 1.682117 4.360446 21.454550 0.003092 0.000000 -174.085048 7.886703 -163.635445 -33.889302 2.460014 8.678013 64.250647 0.220829 17.046648 21.454555 -0.003112 -0.000017 5.908723 -0.361940 1.413026 1.795483 -0.744995 2.820536 1.477794 -0.727819 2.824979 -5.029096 11.166270 3.004595 17.050495 -27.667525 6.768182 174.352163 -76.560915 4.261103 -11.233664 61.297662 34.227328 -32.570720 -8.770992 0.876281 -1.185782 -7.420101 19.081549 -164.837012 72.624807 16.971470 -15.061964 -57.800298 -28.954504 -37.872224 14.678107 -1.410151 0.006796 4.615438 -11.764495 
-264.766388 91.419701 561.677429 91.033984 -2.873099 172.572325 165.557078 5.683000 169.292304 -20.843842 0.135709 -0.370798 72.702849 1.795700 4.798704 21.454557 0.003092 -0.000000 -176.457104 10.314499 -163.688571 -41.283548 1.672418 8.194981 61.486155 1.208981 17.406911 21.454567 -0.003098 -0.000022 6.065143 -0.630147 1.336472 2.102653 -1.283785 2.661786 1.784838 -1.267555 2.669485 -4.764387 11.695391 2.971136 16.326167 -27.502978 6.995607 173.634282 -76.591808 4.992706 -13.464830 60.559763 32.466843 -32.668238 -9.027499 0.895220 -1.176556 -7.580297 19.134357 -164.977906 72.357023 16.828587 -14.901615 -57.797546 -29.398582 -37.891769 14.738949 -1.414592 -0.542395 4.505180 -12.911591 
-262.956909 91.150452 561.345703 91.839509 -3.508352 172.663576 166.922788 6.680099 169.659358 -21.865585 -0.134811 -0.615546 74.185902 1.959316 4.994988 21.454550 0.003092 0.000000 -179.685502 12.463700 -164.974805 -49.022276 0.840606 7.928295 58.001099 1.461665 16.180792 21.454551 -0.003116 -0.000020 6.256171 -0.870965 1.331680 2.479356 -1.769619 2.645157 2.161463 -1.753481 2.655789 -4.489010 12.132538 2.982805 15.732767 -27.278068 7.205579 172.891854 -76.637926 5.748695 -15.619736 59.920491 29.947309 -32.837777 -9.232430 0.912236 -0.908916 -7.999186 18.170057 -165.497505 72.406521 16.294243 -15.445013 -57.943186 -29.195179 -36.983217 14.603733 -1.383436 -0.376982 4.546307 -13.523489 
-261.221985 90.890694 561.044983 92.657827 -4.098451 172.568718 168.373999 7.678606 169.995253 -22.631101 -0.268495 -0.925835 75.490509 2.120193 5.025612 21.454557 0.003091 -0.000000 176.919726 14.130201 -167.051647 -55.982331 0.013852 8.326458 54.633276 0.822420 14.374623 21.454555 -0.003111 -0.000014 6.463200 -1.093313 1.359580 2.887998 -2.219601 2.692479 2.570024 -2.203169 2.705828 -4.140863 12.451321 3.035053 15.093724 -27.100121 7.433947 172.426964 -76.561605 6.225092 -17.571386 59.173282 27.315830 -33.183432 -9.418475 0.931727 -0.627173 -8.765057 16.928813 -166.186207 72.550666 15.585638 -16.457153 -57.966388 -28.740900 -35.492252 14.316817 -1.329351 0.263953 4.518688 -13.576399 
-259.527893 90.688271 560.821411 93.393671 -4.443439 172.734077 169.872119 8.466995 170.373058 -23.182680 -0.252948 -1.062337 76.623016 2.148812 4.999932 21.454550 0.003092 -0.000000 173.644418 14.974794 -169.150605 -61.931224 -0.829014 7.507245 54.325426 0.504349 12.304833 21.454555 -0.003109 -0.000017 6.660044 -1.241329 1.348520 3.278721 -2.519797 2.662520 2.960683 -2.503542 2.677684 -3.682355 12.744069 3.089655 14.326552 -27.055419 7.686586 171.970134 -76.403316 6.695715 -19.281247 58.372320 25.088122 -33.608096 -9.652857 0.956163 -0.436909 -9.842449 15.800594 -166.656711 72.558752 15.102190 -17.567597 -57.668769 -28.380636 -33.870280 13.890049 -1.264925 0.863482 4.669926 -13.394175 
-257.871887 90.494904 560.696411 93.951608 -4.585065 173.422970 171.160565 8.965101 170.789686 -23.911715 -0.167663 -0.895765 77.745694 1.980146 5.019061 21.454550 0.003092 0.000000 170.656060 15.154206 -171.067279 -66.126606 -1.303558 4.181717 60.659115 1.752469 10.979395 21.454555 -0.003106 -0.000021 6.820149 -1.313990 1.261880 3.599513 -2.666099 2.483495 3.281362 -2.650920 2.499548 -3.163033 13.054722 3.119183 13.601611 -27.084159 7.904961 171.249481 -76.315186 7.433595 -20.812170 57.725965 23.351117 -33.932824 -9.909399 0.980006 -0.271884 -11.041902 14.905059 -166.650100 72.463499 15.109418 -18.303949 -57.191192 -28.268732 -32.577718 13.431799 -1.207339 1.180928 5.325899 -13.173088 
-256.173309 90.427750 560.651428 94.284628 -4.386444 174.700994 172.434560 8.986891 171.233129 -24.491105 -0.079242 -0.349803 78.727076 1.590884 5.162050 21.454553 0.003092 0.000000 168.420649 14.661500 -172.742779 -67.614310 -1.317293 2.040832 65.424319 2.790184 10.772413 21.454557 -0.003108 -0.000018 6.928771 -1.285822 1.106308 3.821005 -2.607061 2.170627 3.502790 -2.593771 2.186333 -2.693600 13.404400 3.110836 13.133735 -27.085682 8.030358 170.254568 -76.410392 8.445610 -22.239895 57.393827 21.907828 -34.087251 -10.101020 0.995945 -0.144713 -11.977351 14.322246 -166.216205 72.377076 15.555660 -18.365166 -56.773055 -28.418942 -31.883463 13.134039 -1.173575 1.420424 6.256032 -12.925605 
-254.446396 90.425323 560.611816 94.392565 -4.079283 176.355894 173.561090 8.748095 171.513126 -25.026693 0.005735 0.516574 79.611934 1.022739 5.447503 21.454548 0.003092 -0.000000 166.493197 13.725401 -174.228850 -66.804892 -0.648233 2.197838 67.518886 2.091485 9.867252 21.454560 -0.003106 -0.000016 6.981058 -1.215527 0.917631 3.930887 -2.461199 1.794328 3.612647 -2.450183 1.809163 -2.318971 13.794941 3.075035 12.891518 -27.047232 8.084604 169.195889 -76.623227 9.518099 -23.477064 57.282802 20.695833 -34.207059 -10.165303 1.002776 -0.286767 -12.485769 14.137911 -165.643617 72.339353 16.144363 -17.715641 -56.490384 -28.805903 -31.773459 13.085480 -1.168172 1.810465 6.816915 -12.716613 
-252.753296 90.462097 560.557922 94.316703 -3.729275 178.202996 174.484149 8.364106 171.793888 -25.540726 0.068704 1.492750 80.358145 0.410028 5.833764 21.454551 0.003092 0.000000 164.746048 12.609999 -175.699786 -64.277066 0.190467 3.370121 70.470190 0.813190 9.578532 21.454557 -0.003109 -0.000017 7.002237 -1.128960 0.725922 3.978325 -2.281962 1.413320 3.660067 -2.273249 1.427081 -2.097171 14.221159 3.021791 12.690009 -27.024173 8.135460 168.207888 -76.815811 10.518574 -24.474004 57.180158 19.854392 -34.511740 -10.120254 1.006499 -0.913475 -13.314928 14.400680 -165.006510 72.262356 16.799752 -16.699077 -56.225561 -29.341250 -32.081542 13.188550 -1.181207 2.245184 6.799969 -12.406925 
-251.130402 90.481949 560.492371 94.081676 -3.438849 -179.910284 175.283076 8.030595 172.492562 -25.859101 0.032641 2.256254 81.119664 -0.055680 6.230616 21.454551 0.003092 0.000000 163.128632 11.441803 -176.853269 -60.480663 0.773788 4.523602 74.105941 -0.649063 8.674726 21.454543 -0.003111 -0.000018 7.009527 -1.053644 0.549773 3.997040 -2.125476 1.063415 3.678756 -2.118878 1.076238 -2.067761 14.646938 2.964474 12.418088 -27.095721 8.231239 167.408442 -76.887214 11.330629 -25.182031 56.965301 19.670660 -35.132355 -10.088452 1.018225 -1.894099 -15.658453 15.050149 -164.434687 72.116361 17.388687 -15.543369 -55.906365 -30.037348 -32.733955 13.346056 -1.205108 2.480022 6.652022 -11.439611 
-249.570206 90.509483 560.418884 93.675887 -3.293015 -178.030274 175.931480 7.923494 173.767116 -25.965794 -0.054037 2.638630 81.593242 -0.264309 6.548659 21.454545 0.003092 0.000000 161.550079 10.526902 -177.261441 -55.697648 0.917412 4.939715 76.476856 -1.483262 7.449997 21.454548 -0.003109 -0.000018 7.001995 -1.011002 0.389276 3.985167 -2.034702 0.744016 3.666885 -2.030035 0.756297 -2.217164 15.049058 2.902931 12.135895 -27.299573 8.357210 166.825772 -76.869237 11.924935 -25.593863 56.781821 20.000754 -36.061719 -10.236971 1.049159 -2.721583 -19.640282 15.694311 -163.817497 71.931878 18.024878 -14.367672 -55.582307 -30.866267 -33.808767 13.519889 -1.239613 2.474153 6.807289 -9.479164 
-248.076401 90.602898 560.310486 93.077542 -3.154122 -176.126277 176.273181 7.909301 175.283131 -26.105748 -0.103134 2.800666 81.600291 -0.302468 6.862285 21.454548 0.003092 -0.000000 160.036031 9.768297 -176.930532 -50.108768 0.532430 3.291356 77.562296 -0.416340 7.250193 21.454545 -0.003109 -0.000018 6.969244 -0.970135 0.245175 3.922319 -1.947972 0.457776 3.604034 -1.945036 0.469538 -2.486741 15.390520 2.820505 11.928868 -27.539319 8.453501 166.535530 -76.868814 12.220598 -25.824334 56.893335 20.145511 -37.166539 -10.575561 1.097360 -2.872363 -23.835091 15.673802 -163.029676 71.763520 18.836776 -13.191571 -55.342134 -31.669938 -35.391141 13.715148 -1.288000 2.366562 7.268970 -7.179835 
